          <svg
            width="83"
            height="30"
            viewBox="0 0 83 30"
            fill="none"
            xmlns="http://www.w3.org/2000/svg"
          >

            <path
              d="M18.0759 0.654297C17.3266 0.654297 16.6309 1.03834 16.2384 1.66968L12.0095 7.87652C11.8717 8.08111 11.9276 8.35685 12.1345 8.49307C12.3023 8.60359 12.5241 8.58992 12.6769 8.46001L16.8396 4.89077C16.9088 4.82923 17.0153 4.8355 17.0776 4.90387C17.1059 4.93521 17.1209 4.97567 17.1209 5.01726V16.1922C17.1209 16.2845 17.0453 16.3586 16.9519 16.3586C16.9018 16.3586 16.8546 16.3369 16.8229 16.2988L4.23977 1.40872C3.82997 0.930652 3.22822 0.654867 2.59477 0.654297H2.15499C0.964746 0.654297 -0.00012207 1.60814 -0.00012207 2.78478V18.5238C-0.00012207 19.7005 0.964746 20.6543 2.15499 20.6543C2.90429 20.6543 3.59999 20.2703 3.99251 19.6389L8.22149 13.4321C8.35921 13.2275 8.3033 12.9518 8.09634 12.8155C7.92863 12.705 7.70674 12.7187 7.55402 12.8486L3.39133 16.4179C3.32217 16.4794 3.21554 16.4731 3.15329 16.4047C3.12504 16.3734 3.11006 16.333 3.11063 16.2913V5.11356C3.11063 5.02125 3.18614 4.94718 3.27951 4.94718C3.32909 4.94718 3.37692 4.96883 3.40863 5.00701L15.99 19.8999C16.3998 20.378 17.0016 20.6538 17.635 20.6543H18.0748C19.265 20.6549 20.2305 19.7016 20.2316 18.525V2.78478C20.2316 1.60814 19.2661 0.654297 18.0759 0.654297Z"
              fill="#d2cafa"
            />
          </svg>
