<svg
              width="56"
              height="56"
              viewBox="0 0 56 56"
              fill="#806ce1"
              xmlns="http://www.w3.org/2000/svg"
            >
              <path
                d="M49.875 0H6.125C2.7475 0 0 2.7475 0 6.125V49.875C0 53.2525 2.7475 56 6.125 56H49.875C53.2525 56 56 53.2525 56 49.875V6.125C56 2.7475 53.2525 0 49.875 0ZM15.0019 32.8606L23.5113 43.8681C23.7869 44.2969 23.7606 44.87 23.3844 45.2463L23.345 45.2856C23.0081 45.6225 22.3519 45.5744 21.8444 45.0669L9.68187 32.9044C9.51125 32.7337 9.51125 32.4581 9.68187 32.2875L21.8444 20.125C22.3519 19.6175 23.0081 19.565 23.345 19.9062L23.3844 19.9456C23.7606 20.3219 23.7869 20.895 23.5113 21.3238L15.0019 32.3312C14.8794 32.4888 14.8794 32.7075 15.0019 32.865V32.8606ZM46.3181 32.9044L34.1556 45.0669C33.6481 45.5744 32.9919 45.6269 32.655 45.2856L32.6156 45.2463C32.2394 44.87 32.2131 44.2969 32.4888 43.8681L40.9981 32.8606C41.1206 32.7031 41.1206 32.4844 40.9981 32.3269L32.4888 21.3194C32.2131 20.8906 32.2394 20.3175 32.6156 19.9412L32.655 19.9019C32.9919 19.565 33.6481 19.6131 34.1556 20.1206L46.3181 32.2831C46.4888 32.4538 46.4888 32.7294 46.3181 32.9V32.9044ZM53.375 10.0625H2.625V6.125C2.625 4.19563 4.19563 2.625 6.125 2.625H49.875C51.8044 2.625 53.375 4.19563 53.375 6.125V10.0625Z"
                fill="#fff"
              />
            </svg>
