          <svg
            width="83"
            height="30"
            viewBox="0 0 83 21"
            fill="none"
            xmlns="http://www.w3.org/2000/svg"
          >
            <path
              d="M34.319 3.48737C32.7852 3.48737 31.6699 3.84578 30.7224 4.67256L29.0491 6.10561C28.9096 6.21615 28.6307 6.29877 28.4358 6.13296C28.2404 5.96771 28.2128 5.7472 28.3799 5.52669L29.2722 4.20361C29.4116 4.01045 29.3004 3.76258 29.0491 3.76258H26.9021C26.6513 3.76258 26.4559 3.95575 26.4559 4.20361V17.1039C26.4559 17.3518 26.6513 17.545 26.9021 17.545H29.1327C29.3834 17.545 29.5788 17.3518 29.5788 17.1039V9.82694C29.5788 6.49193 32.395 5.96828 33.4544 5.96828C35.7127 5.96828 36.5214 7.56715 36.5214 8.77965V17.1039C36.5214 17.3518 36.7168 17.545 36.9675 17.545H39.1981C39.4488 17.545 39.6443 17.3518 39.6443 17.1039V8.50391C39.6443 5.41672 37.6091 3.48737 34.319 3.48737Z"
              fill="#d2cafa"
            />

          </svg>
