<svg
              width="57"
              height="56"
              viewBox="0 0 57 56"
              fill="none"
              xmlns="http://www.w3.org/2000/svg"
            >
              <path
                d="M28.2566 20.1786C33.8054 20.1786 38.3214 15.6516 38.3214 10.0893C38.3214 4.52702 33.8054 0 28.2566 0C22.7078 0 18.1917 4.52702 18.1917 10.0893C18.1917 15.6516 22.7078 20.1786 28.2566 20.1786ZM10.9187 26.434C14.5377 26.434 17.4828 23.4817 17.4828 19.854C17.4828 16.2262 14.5377 13.274 10.9187 13.274C7.29978 13.274 4.35471 16.2262 4.35471 19.854C4.35471 23.4817 7.29978 26.434 10.9187 26.434ZM45.2574 26.434C48.8764 26.434 51.8215 23.4817 51.8215 19.854C51.8215 16.2262 48.8764 13.274 45.2574 13.274C41.6384 13.274 38.6934 16.2262 38.6934 19.854C38.6934 23.4817 41.6384 26.434 45.2574 26.434ZM50.5743 29.316H40.9645C40.5751 26.548 38.2076 24.4161 35.337 24.4161H21.6094C18.7387 24.4161 16.3713 26.548 15.9818 29.316H5.93883C2.79685 29.316 0.25 31.869 0.25 35.0186V47.7092C0.25 48.5646 0.740115 49.3411 1.50592 49.7227C4.70042 51.3107 8.05245 52.6267 11.5314 53.6356C11.7896 53.7102 12.0565 53.5347 12.0871 53.2671L12.5816 49.42L14.3627 35.4705C14.4458 35.0888 14.7697 34.7862 15.181 34.7862H15.2204C15.588 34.7862 15.9162 35.1678 15.9162 35.7249V54.3594C15.9162 54.5699 16.065 54.7498 16.2663 54.7937C20.139 55.5789 24.1431 56 28.2478 56C32.3525 56 36.6717 55.5438 40.6889 54.7015C40.8902 54.6577 41.0389 54.4778 41.0389 54.2673V49.42V35.7249C41.0389 35.1722 41.3803 34.7862 41.761 34.7862H41.8047C42.2292 34.7862 42.5705 35.0844 42.6537 35.4705L44.8505 53.1311C44.8855 53.3987 45.1524 53.5786 45.4106 53.4996C48.732 52.5126 51.9352 51.2449 54.9897 49.7227C55.7555 49.3411 56.25 48.5646 56.25 47.7048V35.0143C56.25 31.8646 53.7032 29.3116 50.5612 29.3116L50.5743 29.316Z"
                fill="#806ce1"
              />
            </svg>
