<svg
              width="57"
              height="56"
              viewBox="0 0 57 56"
              fill="none"
              xmlns="http://www.w3.org/2000/svg"
            >
              <path
                d="M48.1932 30.1863C52.5726 30.1863 56.0813 26.3801 55.5826 21.9001C55.2019 18.492 52.4501 15.7401 49.0419 15.3595C44.5619 14.8607 40.7557 18.3695 40.7557 22.7488C40.7557 22.9632 40.7688 23.1732 40.7863 23.3832L35.1557 24.897C34.4732 23.2345 33.3751 21.7863 31.9969 20.6795L35.8688 14.3576C37.0676 14.8257 38.4107 15.0051 39.8238 14.7645C43.0701 14.2045 45.6207 11.5051 45.9619 8.22822C46.4651 3.43322 42.3701 -0.578654 37.5444 0.0688461C34.2632 0.506346 31.6251 3.1576 31.1963 6.43885C30.8551 9.04197 31.8744 11.422 33.6332 12.9882L29.7613 19.3101C28.4444 18.7107 26.9832 18.3782 25.4432 18.3782C23.3694 18.3782 21.4357 18.9863 19.8038 20.0276L14.0594 13.1063C15.3938 11.527 16.0894 9.38322 15.7176 7.08635C15.2013 3.8926 12.5851 1.36385 9.37818 0.943846C4.52193 0.305096 0.409432 4.39135 1.00006 9.24322C1.39818 12.5245 4.01006 15.1932 7.28256 15.6701C9.02381 15.9238 10.6688 15.5607 12.0426 14.7776L17.7869 21.6988C16.0282 23.5757 14.9432 26.1001 14.9432 28.8738C14.9432 31.0482 15.6082 33.0651 16.7413 34.7451L12.5807 38.3851C11.1019 37.1995 9.16381 36.5651 7.07693 36.8013C3.72131 37.182 0.991307 39.8638 0.562557 43.2151C-0.0586933 48.0713 4.03631 52.1751 8.88818 51.567C12.0819 51.1688 14.6938 48.6838 15.2538 45.5163C15.5907 43.6176 15.1838 41.8282 14.3001 40.3626L18.4651 36.7182C20.3201 38.3676 22.7613 39.3738 25.4344 39.3738C27.7269 39.3738 29.8488 38.6345 31.5769 37.3788L37.8594 44.112C36.6694 45.6957 36.0876 47.7651 36.4988 49.9701C37.0544 52.9276 39.4126 55.3032 42.3701 55.8588C47.4319 56.8126 51.8244 52.5951 51.1813 47.577C50.7657 44.3526 48.2282 41.732 45.0213 41.2157C43.0788 40.9051 41.2501 41.3601 39.7801 42.3138L27.0576 28.9001C26.6769 28.502 26.6551 27.9901 26.9351 27.7232L26.9657 27.6926C27.2719 27.3995 27.7269 27.3776 28.0507 27.5963L34.5563 32.807C34.7882 32.9951 35.1338 32.8945 35.2432 32.6145C35.6894 31.4507 35.9388 30.1907 35.9388 28.8695C35.9388 28.3795 35.9038 27.8982 35.8382 27.4301L41.4688 25.912C42.6632 28.432 45.2226 30.182 48.1888 30.182L48.1932 30.1863Z"
                fill="#806ce1"
              />
            </svg>
