<svg
              width="57"
              height="56"
              viewBox="0 0 57 56"
              fill="none"
              xmlns="http://www.w3.org/2000/svg"
            >
              <path
                d="M44.5 17.9375H51.0625C54.2038 17.9375 56.75 15.3912 56.75 12.25V5.6875C56.75 2.54625 54.2038 0 51.0625 0H44.5C41.3587 0 38.8125 2.54625 38.8125 5.6875V7.4375H19.125V5.6875C19.125 2.54625 16.5787 0 13.4375 0H6.4375C3.29625 0 0.75 2.54625 0.75 5.6875V12.6875C0.75 15.8287 3.29625 18.375 6.4375 18.375H8.625V22.9688C8.625 26.11 11.1713 28.6562 14.3125 28.6562H18.25V32.1562C18.25 35.2975 20.7962 37.8438 23.9375 37.8438H27.4375V45.5H19.125V43.3125C19.125 40.1712 16.5787 37.625 13.4375 37.625H6.4375C3.29625 37.625 0.75 40.1712 0.75 43.3125V50.3125C0.75 53.4538 3.29625 56 6.4375 56H13.4375C16.5787 56 19.125 53.4538 19.125 50.3125V48.125H38.375V50.3125C38.375 53.4538 40.9212 56 44.0625 56H51.0625C54.2038 56 56.75 53.4538 56.75 50.3125V43.3125C56.75 40.1712 54.2038 37.625 51.0625 37.625H44.0625C40.9212 37.625 38.375 40.1712 38.375 43.3125V45.5H30.0625V29.7063C30.0625 29.085 30.4431 28.6562 30.8763 28.6562H30.9244C31.4013 28.6562 31.7863 28.9931 31.8825 29.4219L32.9544 37.4631C32.985 37.6819 33.1688 37.8438 33.3875 37.8438H33.5669C36.7081 37.8438 39.2544 35.2975 39.2544 32.1562V22.5312C39.2544 19.39 36.7081 16.8438 33.5669 16.8438H23.9419C20.8006 16.8438 18.2544 19.39 18.2544 22.5312V26.0312H14.3169C12.6237 26.0312 11.2544 24.6619 11.2544 22.9688V18.375H13.4419C16.5831 18.375 19.1294 15.8287 19.1294 12.6875V10.0625H38.8169V12.25C38.8169 15.3912 41.3631 17.9375 44.5044 17.9375H44.5Z"
                fill="#806ce1"
              />
            </svg>
