  <svg
    width="367"
    height="149"
    viewBox="0 0 367 149"
    fill="none"
    xmlns="http://www.w3.org/2000/svg"
  >
    <path d="M74.6419 43C73.496 43 72.4322 43.5953 71.8319 44.5738L65.365 54.1941C65.1544 54.5112 65.2399 54.9386 65.5563 55.1497C65.8128 55.321 66.1521 55.2998 66.3857 55.0985L72.7512 49.5663C72.857 49.471 73.0201 49.4807 73.1153 49.5867C73.1584 49.6352 73.1814 49.6979 73.1814 49.7624V67.083C73.1814 67.2261 73.0659 67.3409 72.9231 67.3409C72.8464 67.3409 72.7741 67.3074 72.7257 67.2482L53.4836 44.1693C52.8578 43.4275 51.9377 43 50.9681 43H50.2956C48.4755 43 47 44.4784 47 46.3022V70.697C47 72.5207 48.4755 73.9991 50.2956 73.9991C51.4414 73.9991 52.5053 73.4039 53.1055 72.4253L59.5724 62.805C59.7831 62.4879 59.6976 62.0605 59.3811 61.8494C59.1247 61.6781 58.7853 61.6993 58.5517 61.9006L52.1862 67.4328C52.0804 67.5282 51.9174 67.5184 51.8222 67.4125C51.779 67.3639 51.7561 67.3012 51.757 67.2367V49.9125C51.757 49.7695 51.8724 49.6547 52.0152 49.6547C52.091 49.6547 52.1642 49.6882 52.2126 49.7474L71.452 72.8307C72.0787 73.5717 72.9989 73.9991 73.9676 74H74.6401C76.4602 74.0009 77.9366 72.5233 77.9383 70.6996V46.3022C77.9374 44.4784 76.462 43 74.6419 43Z"

      stroke="#3A3F42"
      stroke-width="1.4"
      stroke-linecap="round"
      stroke-linejoin="round"
    />
  </svg>
