  <svg
    width="19"
    height="20"
    viewBox="0 0 19 20"
    fill="none"
    xmlns="http://www.w3.org/2000/svg"
  >
    <path
      d="M7.125 9.99967L8.70833 11.583L12.2708 8.02051M14.1718 4.45683C14.3348 4.8511 14.6477 5.16449 15.0417 5.32811L16.4233 5.90041C16.8176 6.06373 17.1309 6.377 17.2942 6.7713C17.4575 7.16561 17.4575 7.60864 17.2942 8.00294L16.7223 9.3836C16.5589 9.77808 16.5587 10.2216 16.7228 10.6158L17.2937 11.9961C17.3747 12.1914 17.4164 12.4007 17.4164 12.6121C17.4164 12.8235 17.3748 13.0329 17.2939 13.2282C17.213 13.4235 17.0944 13.601 16.9449 13.7505C16.7954 13.8999 16.6179 14.0185 16.4226 14.0993L15.0419 14.6712C14.6477 14.8342 14.3343 15.1471 14.1707 15.5412L13.5984 16.9228C13.4351 17.3171 13.1218 17.6304 12.7275 17.7937C12.3333 17.957 11.8902 17.957 11.496 17.7937L10.1153 17.2218C9.72105 17.0589 9.27819 17.0592 8.88414 17.2227L7.50253 17.7942C7.10847 17.9572 6.66584 17.957 6.27187 17.7938C5.8779 17.6307 5.56482 17.3178 5.40139 16.9239L4.82894 15.5418C4.66592 15.1475 4.35301 14.8341 3.959 14.6705L2.5774 14.0982C2.18328 13.935 1.87011 13.6219 1.70674 13.2278C1.54336 12.8338 1.54313 12.3909 1.70612 11.9967L2.27799 10.616C2.4409 10.2217 2.44057 9.77884 2.27706 9.38477L1.70601 8.00213C1.62505 7.80684 1.58336 7.5975 1.58333 7.38609C1.58329 7.17468 1.62492 6.96534 1.70582 6.77002C1.78672 6.5747 1.90531 6.39724 2.05482 6.24777C2.20433 6.0983 2.38182 5.97976 2.57716 5.89892L3.95777 5.32703C4.35168 5.16415 4.66488 4.85162 4.82861 4.45805L5.40089 3.0764C5.56421 2.6821 5.87747 2.36883 6.27175 2.2055C6.66604 2.04218 7.10906 2.04218 7.50334 2.2055L8.88396 2.77739C9.27825 2.94031 9.72111 2.93998 10.1152 2.77647L11.4973 2.20639C11.8916 2.04316 12.3345 2.04319 12.7287 2.20648C13.1229 2.36977 13.4361 2.68296 13.5995 3.07715L14.1719 4.45922L14.1718 4.45683Z"
      stroke="white"
      stroke-width="1.4"
      stroke-linecap="round"
      stroke-linejoin="round"
    />
  </svg>
