  <svg
    width="19"
    height="20"
    viewBox="0 0 19 20"
    fill="none"
    xmlns="http://www.w3.org/2000/svg"
  >
    <path
      d="M12.6667 6.04167C12.6667 5.30544 12.6667 4.93733 12.5857 4.6353C12.3661 3.81571 11.7259 3.17554 10.9064 2.95593C10.6043 2.875 10.2362 2.875 9.49999 2.875C8.76377 2.875 8.39565 2.875 8.09363 2.95593C7.27404 3.17554 6.63386 3.81571 6.41425 4.6353C6.33333 4.93733 6.33333 5.30544 6.33333 6.04167M4.11666 17.125H14.8833C15.7701 17.125 16.2135 17.125 16.5521 16.9524C16.8501 16.8006 17.0923 16.5584 17.2441 16.2605C17.4167 15.9218 17.4167 15.4784 17.4167 14.5917V8.575C17.4167 7.68825 17.4167 7.24488 17.2441 6.90618C17.0923 6.60826 16.8501 6.36604 16.5521 6.21424C16.2135 6.04167 15.7701 6.04167 14.8833 6.04167H4.11666C3.22991 6.04167 2.78654 6.04167 2.44784 6.21424C2.14992 6.36604 1.9077 6.60826 1.7559 6.90618C1.58333 7.24488 1.58333 7.68825 1.58333 8.575V14.5917C1.58333 15.4784 1.58333 15.9218 1.7559 16.2605C1.9077 16.5584 2.14992 16.8006 2.44784 16.9524C2.78654 17.125 3.22991 17.125 4.11666 17.125Z"
      stroke="white"
      stroke-width="1.4"
      stroke-linecap="round"
      stroke-linejoin="round"
    />
  </svg>
