  <svg
    width="19"
    height="20"
    viewBox="0 0 19 20"
    fill="none"
    xmlns="http://www.w3.org/2000/svg"
  >
    <path
      d="M16.625 17.125H3.64167C3.19829 17.125 2.9766 17.125 2.80726 17.0387C2.6583 16.9628 2.53719 16.8417 2.46129 16.6927C2.375 16.5234 2.375 16.3017 2.375 15.8583V2.875M16.625 6.04167L12.3228 10.3438C12.1661 10.5006 12.0877 10.579 11.9973 10.6083C11.9178 10.6342 11.8322 10.6342 11.7527 10.6083C11.6623 10.579 11.5839 10.5006 11.4272 10.3438L9.94783 8.8645C9.79108 8.70774 9.7127 8.62937 9.62232 8.6C9.54282 8.57417 9.45718 8.57417 9.37768 8.6C9.2873 8.62937 9.20892 8.70774 9.05217 8.8645L5.54167 12.375M16.625 6.04167H13.4583M16.625 6.04167V9.20833"
      stroke="white"
      stroke-width="1.4"
      stroke-linecap="round"
      stroke-linejoin="round"
    />
  </svg>
