  <svg
    width="19"
    height="20"
    viewBox="0 0 19 20"
    fill="none"
    xmlns="http://www.w3.org/2000/svg"
  >
    <path
      d="M17.4167 17.125V15.5417C17.4167 14.0661 16.4075 12.8263 15.0417 12.4748M12.2708 3.10518C13.4313 3.57495 14.25 4.7127 14.25 6.04167C14.25 7.37063 13.4313 8.50838 12.2708 8.97815M13.4583 17.125C13.4583 15.6495 13.4583 14.9118 13.2173 14.3298C12.8959 13.5539 12.2794 12.9374 11.5035 12.616C10.9216 12.375 10.1838 12.375 8.70833 12.375H6.33333C4.85785 12.375 4.12011 12.375 3.53816 12.616C2.76224 12.9374 2.14577 13.5539 1.82438 14.3298C1.58333 14.9118 1.58333 15.6495 1.58333 17.125M10.6875 6.04167C10.6875 7.79057 9.26973 9.20833 7.52083 9.20833C5.77193 9.20833 4.35416 7.79057 4.35416 6.04167C4.35416 4.29276 5.77193 2.875 7.52083 2.875C9.26973 2.875 10.6875 4.29276 10.6875 6.04167Z"
      stroke="white"
      stroke-width="1.4"
      stroke-linecap="round"
      stroke-linejoin="round"
    />
  </svg>
