  <svg
    width="19"
    height="20"
    viewBox="0 0 19 20"
    fill="none"
    xmlns="http://www.w3.org/2000/svg"
  >
    <path
      d="M4.78747 9.3252C4.28364 9.3252 3.78476 9.22335 3.31929 9.02547C2.85382 8.82759 2.43088 8.53756 2.07462 8.17193C1.71837 7.8063 1.43577 7.37223 1.24297 6.89451C1.05016 6.41679 0.950928 5.90478 0.950928 5.3877C0.950928 4.87062 1.05016 4.3586 1.24297 3.88088C1.43577 3.40316 1.71837 2.96909 2.07462 2.60346C2.43088 2.23783 2.85382 1.9478 3.31929 1.74992C3.78476 1.55204 4.28364 1.4502 4.78747 1.4502C5.80498 1.4502 6.78082 1.86504 7.50031 2.60346C8.2198 3.34189 8.624 4.34341 8.624 5.3877C8.624 6.43199 8.2198 7.4335 7.50031 8.17193C6.78082 8.91035 5.80498 9.3252 4.78747 9.3252ZM5.21375 18.0752C4.19623 18.0752 3.2204 17.6604 2.50091 16.9219C1.78142 16.1835 1.37721 15.182 1.37721 14.1377C1.37721 13.0934 1.78142 12.0919 2.50091 11.3535C3.2204 10.615 4.19623 10.2002 5.21375 10.2002C6.23126 10.2002 7.2071 10.615 7.92659 11.3535C8.64608 12.0919 9.05029 13.0934 9.05029 14.1377C9.05029 15.182 8.64608 16.1835 7.92659 16.9219C7.2071 17.6604 6.23126 18.0752 5.21375 18.0752ZM13.7394 9.3252C13.2356 9.3252 12.7367 9.22335 12.2712 9.02547C11.8057 8.82759 11.3828 8.53756 11.0265 8.17193C10.6703 7.8063 10.3877 7.37223 10.1949 6.89451C10.0021 6.41679 9.90285 5.90478 9.90285 5.3877C9.90285 4.87062 10.0021 4.3586 10.1949 3.88088C10.3877 3.40316 10.6703 2.96909 11.0265 2.60346C11.3828 2.23783 11.8057 1.9478 12.2712 1.74992C12.7367 1.55204 13.2356 1.4502 13.7394 1.4502C14.7569 1.4502 15.7327 1.86504 16.4522 2.60346C17.1717 3.34189 17.5759 4.34341 17.5759 5.3877C17.5759 6.43199 17.1717 7.4335 16.4522 8.17193C15.7327 8.91035 14.7569 9.3252 13.7394 9.3252ZM13.7394 18.0752C12.7219 18.0752 11.746 17.6604 11.0265 16.9219C10.3071 16.1835 9.90285 15.182 9.90285 14.1377C9.90285 13.0934 10.3071 12.0919 11.0265 11.3535C11.746 10.615 12.7219 10.2002 13.7394 10.2002C14.7569 10.2002 15.7327 10.615 16.4522 11.3535C17.1717 12.0919 17.5759 13.0934 17.5759 14.1377C17.5759 15.182 17.1717 16.1835 16.4522 16.9219C15.7327 17.6604 14.7569 18.0752 13.7394 18.0752ZM4.78747 7.5752C5.35275 7.5752 5.89488 7.34473 6.2946 6.93449C6.69432 6.52426 6.91888 5.96786 6.91888 5.3877C6.91888 4.80753 6.69432 4.25114 6.2946 3.8409C5.89488 3.43066 5.35275 3.2002 4.78747 3.2002C4.22218 3.2002 3.68005 3.43066 3.28033 3.8409C2.88061 4.25114 2.65606 4.80753 2.65606 5.3877C2.65606 5.96786 2.88061 6.52426 3.28033 6.93449C3.68005 7.34473 4.22218 7.5752 4.78747 7.5752ZM5.21375 16.3252C5.77903 16.3252 6.32117 16.0947 6.72088 15.6845C7.1206 15.2743 7.34516 14.7179 7.34516 14.1377C7.34516 13.5575 7.1206 13.0011 6.72088 12.5909C6.32117 12.1807 5.77903 11.9502 5.21375 11.9502C4.64846 11.9502 4.10633 12.1807 3.70661 12.5909C3.3069 13.0011 3.08234 13.5575 3.08234 14.1377C3.08234 14.7179 3.3069 15.2743 3.70661 15.6845C4.10633 16.0947 4.64846 16.3252 5.21375 16.3252ZM13.7394 7.5752C14.3047 7.5752 14.8468 7.34473 15.2465 6.93449C15.6462 6.52426 15.8708 5.96786 15.8708 5.3877C15.8708 4.80753 15.6462 4.25114 15.2465 3.8409C14.8468 3.43066 14.3047 3.2002 13.7394 3.2002C13.1741 3.2002 12.632 3.43066 12.2323 3.8409C11.8325 4.25114 11.608 4.80753 11.608 5.3877C11.608 5.96786 11.8325 6.52426 12.2323 6.93449C12.632 7.34473 13.1741 7.5752 13.7394 7.5752ZM13.7394 16.3252C14.3047 16.3252 14.8468 16.0947 15.2465 15.6845C15.6462 15.2743 15.8708 14.7179 15.8708 14.1377C15.8708 13.5575 15.6462 13.0011 15.2465 12.5909C14.8468 12.1807 14.3047 11.9502 13.7394 11.9502C13.1741 11.9502 12.632 12.1807 12.2323 12.5909C11.8325 13.0011 11.608 13.5575 11.608 14.1377C11.608 14.7179 11.8325 15.2743 12.2323 15.6845C12.632 16.0947 13.1741 16.3252 13.7394 16.3252Z"
      fill="white"
      stroke="white"
      stroke-width="0.35"
    />
  </svg>
