 <svg
    width="19"
    height="20"
    viewBox="0 0 19 20"
    fill="none"
    xmlns="http://www.w3.org/2000/svg"
  >
    <path
      d="M6.33333 13.9587H12.6667M8.72234 2.6885L3.35302 6.86464C2.9941 7.1438 2.81464 7.28338 2.68535 7.45818C2.57083 7.61302 2.48552 7.78746 2.4336 7.97292C2.375 8.18229 2.375 8.40964 2.375 8.86433V14.592C2.375 15.4787 2.375 15.9221 2.54757 16.2608C2.69937 16.5587 2.94159 16.801 3.23952 16.9527C3.57821 17.1253 4.02158 17.1253 4.90833 17.1253H14.0917C14.9784 17.1253 15.4218 17.1253 15.7605 16.9527C16.0584 16.801 16.3006 16.5587 16.4524 16.2608C16.625 15.9221 16.625 15.4787 16.625 14.592V8.86433C16.625 8.40964 16.625 8.18229 16.5664 7.97292C16.5145 7.78746 16.4292 7.61302 16.3146 7.45818C16.1854 7.28338 16.0059 7.1438 15.647 6.86464L10.2777 2.6885C9.99953 2.47218 9.86046 2.36401 9.7069 2.32244C9.57141 2.28575 9.42859 2.28575 9.2931 2.32244C9.13954 2.36401 9.00047 2.47218 8.72234 2.6885Z"
      stroke="white"
      stroke-width="1.4"
      stroke-linecap="round"
      stroke-linejoin="round"
    />
  </svg>
